# xmcd
#
# Track frame offsets:
#	150
#	15167
#	40112
#	55360
#	67962
#	79362
#	92175
#	103677
#	119855
#	141025
#	155937
#	169472
#
# Disc length: 2522
#
# Revision: 3
# Processed by: cddbd v1.5.1PL0 Copyright (c) Steve Scherf et al.
# Submitted via: DiscPlay 4.0.3
# Normalized: r1:TSWAP
#
DISCID=a909d80c
DTITLE=Various Artist - Country Prayer
DYEAR=1900
DGENRE=
TTITLE0=Larry Gatlin and The Gatlin Bros. - The Prodigal Son
TTITLE1=Ricky Van Shelton - The Old Rugged Cross
TTITLE2=Barbara Mandrell - What A Friend We Have In Jesus
TTITLE3=Conway Twitty - Who Will Pray For Me
TTITLE4=George Jones - Homecoming In Heaven
TTITLE5=The Oak Ridge Boys - How Great Thou Art
TTITLE6=The Statler Bros. - Turn On Your Radio
TTITLE7=Emmylou Harris - Where Could I Go But To The Lord
TTITLE8=Willie Nelson - Uncloudy Day
TTITLE9=Merle Haggard - Precious Memories
TTITLE10=Tennessee Ernie Ford - He'll Understand And Say Well Done
TTITLE11=Glen Campbell - Amazing Grace
EXTD=
EXTT0=
EXTT1=
EXTT2=
EXTT3=
EXTT4=
EXTT5=
EXTT6=
EXTT7=
EXTT8=
EXTT9=
EXTT10=
EXTT11=
PLAYORDER=
